# xmcd
#
# Track frame offsets: 
#        150
#        13234
#        24032
#        34525
#        48633
#        65361
#        73846
#        83223
#        99246
#        115114
#        130612
#        142138
#        150541
#
# Disc length: 2545 seconds
#
# Revision: 0
# Processed by: cddbd v1.5.2PL0 Copyright (c) Steve Scherf et al.
# Submitted via: ExactAudioCopy v0.99pb4
#
DISCID=a409ef0d
DTITLE=Fats Domino - The World Of Fats Domino CD1
DYEAR=2008
DGENRE=Rhythm&Blues
TTITLE0=I'm Walking
TTITLE1=Ain't That A Shame
TTITLE2=The Fat Man
TTITLE3=Walkin' To New Orleans
TTITLE4=Please Don't Leave Me 
TTITLE5=My Girl Josephine
TTITLE6=Margie
TTITLE7=I'm In Love Again
TTITLE8=Whiskey Heaven
TTITLE9=Your Cheatin' Heart
TTITLE10=Song For Rosemary (Instrumental)
TTITLE11=The Sheikh Of Araby 
TTITLE12=Jambalaya On The Bayou 
EXTD=
EXTT0=
EXTT1=
EXTT2=
EXTT3=
EXTT4=
EXTT5=
EXTT6=
EXTT7=
EXTT8=
EXTT9=
EXTT10=
EXTT11=
EXTT12=
PLAYORDER=
